<svg xmlns="http://www.w3.org/2000/svg" width="900" height="312"
     viewBox="0 0 900 312" role="img"
     aria-label="Live GitHub activity for Al-Scripting">
  <title>Al-Scripting — live GitHub activity</title>
  <style>
    text { font-family: "JetBrains Mono", ui-monospace, SFMono-Regular, Menlo, monospace; }
    .frame { fill: #F4EBDA; stroke: #BC2D29; stroke-opacity: 0.85; stroke-width: 2; }
    .chrome { fill: #EAE0C9; }
    .kacc { fill: #BC2D29; font-size: 15px; font-weight: 700;
            font-family: "Hiragino Mincho ProN", "Yu Mincho", "Noto Serif JP", serif; }
    .title { fill: #BC2D29; font-size: 16px; font-weight: 700; letter-spacing: 2px; }
    .sub { fill: #8C7B66; font-size: 10.5px; letter-spacing: 0.4px; }
    .label { fill: #2B2320; font-size: 11.5px; font-weight: 700; letter-spacing: 1.2px; }
    .signal { fill: #8C7B66; font-size: 9.5px; }
    .score { fill: #BC2D29; font-size: 11.5px; font-weight: 700; }
    .track { fill: #E3D5B8; }
    .fill { fill: url(#grad); }
    .spark-line { fill: none; stroke: #BC2D29; stroke-width: 1.6; stroke-linejoin: round; }
    .spark-area { fill: url(#fade); }
    .spark-dot { fill: #BC2D29; }
    .glabel { fill: #8C7B66; font-size: 9px; letter-spacing: 0.6px; }
    .foot { fill: #8C7B66; font-size: 9.5px; }
    .accent { fill: #BC2D29; font-size: 9.5px; font-weight: 700; }
  </style>
  <defs>
    <linearGradient id="grad" x1="0" y1="0" x2="1" y2="0">
      <stop offset="0%" stop-color="#8E1F1D"/>
      <stop offset="100%" stop-color="#BC2D29"/>
    </linearGradient>
    <linearGradient id="fade" x1="0" y1="0" x2="0" y2="1">
      <stop offset="0%" stop-color="#BC2D29" stop-opacity="0.30"/>
      <stop offset="100%" stop-color="#BC2D29" stop-opacity="0"/>
    </linearGradient>
  </defs>

  <rect x="1" y="1" width="898" height="310" rx="12" class="frame"/>
  <path d="M1 13 a12 12 0 0 1 12-12 h874 a12 12 0 0 1 12 12 v19 h-898 z" class="chrome"/>
  <circle cx="24" cy="17" r="4.5" fill="#BC2D29"/>
  <circle cx="40" cy="17" r="4.5" fill="#CDBC9C"/>
  <circle cx="56" cy="17" r="4.5" fill="#CDBC9C"/>
  <text x="450.0" y="21" class="sub" text-anchor="middle">al@oshawa: ~/activity --live</text>

  <text x="34" y="64" class="title">GITHUB ACTIVITY <tspan class="kacc" dx="6">活動記録</tspan></text>
  <text x="34" y="83" class="sub">generated daily from the GitHub API<tspan> _<animate
    attributeName="opacity" values="1;1;0;0" dur="1.1s" repeatCount="indefinite"/></tspan></text>


  <g>
    <animate attributeName="opacity" from="0" to="1" dur="0.45s"
             begin="0.02s" fill="freeze"/>
    <text x="34" y="126" class="label">BREADTH</text>
    <text x="148" y="126" class="signal">10 languages · 12 repos touched</text>
    <rect x="360" y="116" width="340" height="12" rx="6" class="track"/>
    <rect x="360" y="116" width="222.6" height="12" rx="6" class="fill">
      <animate attributeName="width" from="0" to="222.6"
               dur="1.05s" begin="0.30s" fill="freeze"
               calcMode="spline" keySplines="0.16 1 0.3 1" keyTimes="0;1"/>
    </rect>
    <text x="714" y="126" class="score">0.65</text>
  </g>
  <g>
    <animate attributeName="opacity" from="0" to="1" dur="0.45s"
             begin="0.16s" fill="freeze"/>
    <text x="34" y="166" class="label">COMMITS</text>
    <text x="148" y="166" class="signal">514 commits this year</text>
    <rect x="360" y="156" width="340" height="12" rx="6" class="track"/>
    <rect x="360" y="156" width="216.7" height="12" rx="6" class="fill">
      <animate attributeName="width" from="0" to="216.7"
               dur="1.05s" begin="0.44s" fill="freeze"
               calcMode="spline" keySplines="0.16 1 0.3 1" keyTimes="0;1"/>
    </rect>
    <text x="714" y="166" class="score">0.64</text>
  </g>
  <g>
    <animate attributeName="opacity" from="0" to="1" dur="0.45s"
             begin="0.30s" fill="freeze"/>
    <text x="34" y="206" class="label">CONSISTENCY</text>
    <text x="148" y="206" class="signal">3-day streak · 817 contributions</text>
    <rect x="360" y="196" width="340" height="12" rx="6" class="track"/>
    <rect x="360" y="196" width="259.7" height="12" rx="6" class="fill">
      <animate attributeName="width" from="0" to="259.7"
               dur="1.05s" begin="0.58s" fill="freeze"
               calcMode="spline" keySplines="0.16 1 0.3 1" keyTimes="0;1"/>
    </rect>
    <text x="714" y="206" class="score">0.76</text>
  </g>
  <g>
    <animate attributeName="opacity" from="0" to="1" dur="0.45s"
             begin="0.44s" fill="freeze"/>
    <text x="34" y="246" class="label">COLLAB</text>
    <text x="148" y="246" class="signal">22 PRs · 7 issues · 0 reviews</text>
    <rect x="360" y="236" width="340" height="12" rx="6" class="track"/>
    <rect x="360" y="236" width="115.9" height="12" rx="6" class="fill">
      <animate attributeName="width" from="0" to="115.9"
               dur="1.05s" begin="0.72s" fill="freeze"
               calcMode="spline" keySplines="0.16 1 0.3 1" keyTimes="0;1"/>
    </rect>
    <text x="714" y="246" class="score">0.34</text>
  </g>

  <g>
    <animate attributeName="opacity" from="0" to="1" dur="0.5s" begin="0.55s" fill="freeze"/>
    <text x="724" y="190" class="glabel">52-week contributions</text>
    <path d="M724.0,248.0 L726.7,248.0 L729.5,248.0 L732.2,248.0 L734.9,238.9 L737.7,238.9 L740.4,245.9 L743.1,243.0 L745.8,243.0 L748.6,242.6 L751.3,243.0 L754.0,246.8 L756.8,248.0 L759.5,247.6 L762.2,222.7 L765.0,248.0 L767.7,248.0 L770.4,248.0 L773.2,248.0 L775.9,244.3 L778.6,236.4 L781.3,233.9 L784.1,230.6 L786.8,244.7 L789.5,239.3 L792.3,240.5 L795.0,237.6 L797.7,237.2 L800.5,237.2 L803.2,243.9 L805.9,243.9 L808.7,243.9 L811.4,248.0 L814.1,248.0 L816.8,248.0 L819.6,246.8 L822.3,248.0 L825.0,247.2 L827.8,247.2 L830.5,245.5 L833.2,245.9 L836.0,246.3 L838.7,243.4 L841.4,243.4 L844.2,246.3 L846.9,243.0 L849.6,221.9 L852.3,233.5 L855.1,224.8 L857.8,237.2 L860.5,202.0 L863.3,233.1 L866.0,248.0 L866.0,248.0 L724.0,248.0 Z" class="spark-area"/>
    <path d="M724.0,248.0 L726.7,248.0 L729.5,248.0 L732.2,248.0 L734.9,238.9 L737.7,238.9 L740.4,245.9 L743.1,243.0 L745.8,243.0 L748.6,242.6 L751.3,243.0 L754.0,246.8 L756.8,248.0 L759.5,247.6 L762.2,222.7 L765.0,248.0 L767.7,248.0 L770.4,248.0 L773.2,248.0 L775.9,244.3 L778.6,236.4 L781.3,233.9 L784.1,230.6 L786.8,244.7 L789.5,239.3 L792.3,240.5 L795.0,237.6 L797.7,237.2 L800.5,237.2 L803.2,243.9 L805.9,243.9 L808.7,243.9 L811.4,248.0 L814.1,248.0 L816.8,248.0 L819.6,246.8 L822.3,248.0 L825.0,247.2 L827.8,247.2 L830.5,245.5 L833.2,245.9 L836.0,246.3 L838.7,243.4 L841.4,243.4 L844.2,246.3 L846.9,243.0 L849.6,221.9 L852.3,233.5 L855.1,224.8 L857.8,237.2 L860.5,202.0 L863.3,233.1 L866.0,248.0" class="spark-line" stroke-dasharray="227" stroke-dashoffset="227">
      <animate attributeName="stroke-dashoffset" from="227" to="0"
               dur="1.6s" begin="0.6s" fill="freeze"
               calcMode="spline" keySplines="0.3 0.9 0.3 1" keyTimes="0;1"/>
    </path>
    <circle cx="866.0" cy="248.0" r="3" class="spark-dot">
      <animate attributeName="opacity" values="1;0.25;1" dur="2.2s" repeatCount="indefinite"/>
    </circle>
  </g>

  <line x1="34" y1="278" x2="866" y2="278" stroke="#D8C5A0" stroke-width="1"/>
  <text x="34" y="296" class="foot"><tspan class="accent">817</tspan> contributions
    &#183; <tspan class="accent">3d</tspan> streak
    &#183; 36 repos &#183; 10 languages
    &#183; 2 stars</text>
  <text x="866" y="296" class="foot" text-anchor="end">2026-08-30 12:08 UTC</text>
</svg>
